<?xml version="1.0"?>
<svg xmlns="http://www.w3.org/2000/svg" xmlns:xlink="http://www.w3.org/1999/xlink" xmlns:svgjs="http://svgjs.com/svgjs" version="1.1" width="512" height="512" x="0" y="0" viewBox="0 0 512 512" style="enable-background:new 0 0 512 512" xml:space="preserve" class=""><circle r="256" cx="256" cy="256" fill="#ffffff" shape="circle"/><g transform="matrix(0.7,0,0,0.7,76.79999771118165,56.80000000000001)"><g xmlns="http://www.w3.org/2000/svg" id="XMLID_105_"><g id="XMLID_370_"><path id="XMLID_371_" d="m502 228.999h-51.143c-5.523 0-10 4.477-10 10s4.477 10 10 10h51.143c5.523 0 10-4.477 10-10s-4.477-10-10-10z" fill="#015086" data-original="#000000"/><path id="XMLID_386_" d="m339.499 137.641c5.523 0 10-4.477 10-10v-51.144c0-5.523-4.477-10-10-10s-10 4.477-10 10v51.144c0 5.523 4.477 10 10 10z" fill="#015086" data-original="#000000"/><path id="XMLID_387_" d="m461.476 117.021c-3.905-3.905-10.237-3.905-14.143 0l-36.164 36.164c-3.905 3.905-3.905 10.237 0 14.143 1.953 1.953 4.512 2.929 7.071 2.929s5.119-.976 7.071-2.929l36.164-36.164c3.906-3.905 3.906-10.237.001-14.143z" fill="#015086" data-original="#000000"/><path id="XMLID_388_" d="m253.686 167.328c1.953 1.953 4.512 2.929 7.071 2.929s5.119-.977 7.071-2.929c3.905-3.905 3.905-10.237 0-14.142l-36.164-36.164c-3.905-3.905-10.237-3.905-14.142 0s-3.905 10.237 0 14.142z" fill="#015086" data-original="#000000"/><path id="XMLID_391_" d="m416.857 238.999c0-42.655-34.703-77.358-77.358-77.358-29.688 0-56.148 16.683-69.113 42.545-17.806-9.046-37.532-13.8-57.713-13.8-52.613 0-99.225 31.899-118.473 80.203-2.217-.171-4.426-.257-6.614-.257-48.295-.001-87.586 39.29-87.586 87.585s39.291 87.586 87.586 87.586c20.734 0 40.34-7.146 56.048-20.282 20.577 13.294 44.277 20.282 69.039 20.282 22.034 0 43.518-5.641 62.558-16.373 15.786 10.734 34.111 16.373 53.412 16.373 16.775 0 33.276-4.42 47.719-12.782 4.779-2.768 6.411-8.886 3.643-13.665-2.767-4.779-8.885-6.41-13.665-3.644-11.401 6.602-24.437 10.091-37.697 10.091-17.104 0-33.238-5.605-46.659-16.209-3.341-2.64-7.986-2.874-11.576-.586-17.234 10.987-37.198 16.795-57.735 16.795-23.232 0-45.35-7.291-63.963-21.083-3.998-2.962-9.566-2.535-13.065 1.004-12.801 12.948-29.868 20.079-48.059 20.079-37.267 0-67.586-30.319-67.586-67.586s30.319-67.586 67.586-67.586c3.804 0 7.706.341 11.597 1.013 4.894.844 9.671-2.032 11.21-6.755 14.464-44.383 55.567-74.203 102.28-74.203 41.033 0 77.924 22.825 96.278 59.568 1.896 3.796 5.979 5.987 10.192 5.453 3.316-.416 6.423-.619 9.5-.619 40.746 0 74.544 33.127 75.343 73.847.108 5.522 4.672 9.94 10.194 9.802 5.521-.108 9.91-4.672 9.802-10.194-.447-22.791-8.887-44.261-23.87-61.191 10.846-13.614 16.745-30.34 16.745-48.053zm-93.262 15.932c-9.009-15.835-21.307-29.558-36.06-40.266 9.329-20.016 29.385-33.024 51.963-33.024 31.627 0 57.358 25.73 57.358 57.358 0 12.634-4.037 24.596-11.504 34.474-16.327-12.122-36.039-18.684-56.711-18.684-1.653-.001-3.338.047-5.046.142z" fill="#015086" data-original="#000000"/><path id="XMLID_392_" d="m403 382.08c-2.63 0-5.21 1.07-7.07 2.93s-2.93 4.44-2.93 7.07c0 2.64 1.07 5.21 2.93 7.07 1.86 1.87 4.44 2.93 7.07 2.93 2.64 0 5.21-1.06 7.07-2.93 1.87-1.86 2.93-4.43 2.93-7.07 0-2.63-1.06-5.21-2.93-7.07-1.86-1.86-4.43-2.93-7.07-2.93z" fill="#015086" data-original="#000000"/></g></g></g></svg>
